<?xml version="1.0" standalone="no"?>
<!DOCTYPE svg PUBLIC "-//W3C//DTD SVG 20010904//EN"
 "http://www.w3.org/TR/2001/REC-SVG-20010904/DTD/svg10.dtd">
<svg version="1.0" xmlns="http://www.w3.org/2000/svg"
 width="512.000000pt" height="512.000000pt" viewBox="0 0 512.000000 512.000000"
 preserveAspectRatio="xMidYMid meet">

<g transform="translate(0.000000,512.000000) scale(0.100000,-0.100000)"
fill="#000000" stroke="none">
<path d="M1585 3315 c-341 -63 -673 -124 -737 -136 l-118 -21 0 -178 0 -178
70 0 70 0 0 122 0 122 593 107 c325 60 604 111 620 114 l27 5 0 -711 c0 -617
-2 -711 -15 -711 -8 0 -316 50 -684 110 -369 61 -672 110 -675 110 -4 0 -6
-31 -6 -70 0 -66 1 -70 23 -70 12 0 354 -56 760 -123 l737 -122 0 872 0 873
-22 -1 c-13 0 -302 -52 -643 -114z"/>
<path d="M3910 2830 l0 -60 73 0 74 0 2 60 2 60 -75 0 -76 0 0 -60z"/>
<path d="M3700 2595 l0 -285 70 0 70 0 0 285 0 285 -70 0 -70 0 0 -285z"/>
<path d="M4470 2595 l0 -285 75 0 75 0 0 133 c0 117 2 136 18 150 24 22 55 21
75 -1 14 -15 17 -42 17 -150 l0 -132 76 0 76 0 -4 158 c-3 136 -6 162 -23 192
-41 70 -136 89 -204 41 l-31 -22 0 100 0 101 -75 0 -75 0 0 -285z"/>
<path d="M375 2714 c-59 -22 -103 -70 -121 -132 -38 -130 25 -245 150 -273
181 -40 315 105 265 286 -29 106 -172 164 -294 119z m115 -94 c34 -18 51 -109
30 -164 -5 -14 -21 -32 -35 -42 -23 -15 -27 -15 -50 0 -48 31 -55 137 -13 191
21 27 39 31 68 15z"/>
<path d="M930 2719 c-13 -5 -33 -17 -42 -26 -17 -15 -18 -15 -18 5 0 21 -5 22
-75 22 l-75 0 0 -290 0 -290 75 0 75 0 0 99 0 98 40 -19 c77 -38 172 -3 220
82 21 37 25 58 25 120 -1 87 -24 144 -76 181 -36 25 -111 34 -149 18z m51
-128 c24 -24 29 -38 29 -76 0 -38 -5 -52 -29 -76 -36 -35 -54 -36 -86 -4 -21
20 -25 34 -25 80 0 46 4 60 25 80 32 32 50 31 86 -4z"/>
<path d="M1335 2717 c-84 -33 -135 -110 -135 -204 0 -119 63 -190 182 -208 45
-7 185 10 191 23 2 4 0 25 -5 47 l-8 40 -89 0 c-73 0 -92 3 -110 19 -12 11
-21 23 -21 28 0 4 59 8 130 8 l130 0 0 43 c0 55 -17 115 -43 151 -40 56 -148
82 -222 53z m115 -97 c11 -11 20 -29 20 -40 0 -18 -7 -20 -70 -20 -78 0 -85 8
-49 54 25 32 70 35 99 6z"/>
<path d="M1835 2714 c-16 -8 -38 -23 -47 -31 -17 -15 -18 -14 -18 10 0 26 -1
27 -65 27 l-65 0 0 -205 0 -205 75 0 75 0 0 133 c0 117 2 136 18 150 24 22 55
21 75 -1 14 -15 17 -42 17 -150 l0 -132 76 0 76 0 -3 158 c-4 136 -7 162 -24
192 -37 63 -125 88 -190 54z"/>
<path d="M2420 2703 c-44 -23 -60 -39 -82 -82 -33 -62 -37 -139 -13 -198 36
-87 95 -118 220 -117 50 1 102 6 116 12 26 10 26 12 16 56 l-10 45 -58 -6
c-68 -7 -123 2 -144 23 -28 29 -5 35 118 33 l122 -1 -1 64 c-1 119 -60 185
-172 195 -49 4 -64 1 -112 -24z m140 -83 c11 -11 20 -29 20 -40 0 -18 -7 -20
-70 -20 -79 0 -89 12 -45 55 29 30 68 32 95 5z"/>
<path d="M2945 2714 c-16 -8 -38 -23 -47 -31 -17 -15 -18 -14 -18 10 0 26 -1
27 -65 27 l-65 0 0 -205 0 -205 75 0 75 0 0 133 c0 117 2 136 18 150 26 23 58
21 76 -5 13 -18 16 -51 16 -150 l0 -128 76 0 76 0 -3 158 c-4 136 -7 162 -24
192 -37 63 -125 88 -190 54z"/>
<path d="M3313 2711 c-78 -36 -118 -134 -101 -246 9 -56 30 -90 78 -122 44
-31 126 -32 164 -2 l26 20 0 -31 c0 -20 -9 -40 -26 -57 -23 -23 -31 -25 -87
-20 -34 3 -71 8 -83 12 -19 6 -22 2 -28 -33 -3 -22 -9 -47 -12 -55 -8 -22 53
-37 151 -37 131 1 202 48 224 150 6 28 11 136 11 240 l0 190 -65 0 c-58 0 -65
-2 -65 -20 0 -18 -2 -18 -36 5 -44 30 -93 32 -151 6z m151 -113 c24 -34 21
-133 -4 -158 -27 -27 -52 -25 -81 6 -33 36 -33 113 1 149 29 31 64 32 84 3z"/>
<path d="M3910 2523 l0 -203 75 0 75 0 0 199 0 199 -75 4 -75 3 0 -202z"/>
<path d="M4213 2719 c-75 -22 -118 -105 -89 -174 13 -30 27 -41 91 -70 41 -19
75 -39 75 -44 0 -4 -7 -14 -16 -22 -15 -12 -44 -9 -133 13 -9 2 -18 -13 -27
-45 -12 -48 -12 -48 14 -59 15 -6 63 -11 107 -11 133 -1 190 39 190 134 0 59
-20 83 -102 120 -70 32 -79 42 -58 59 15 12 71 10 106 -4 12 -5 18 4 26 41 6
26 10 49 8 51 -2 2 -21 8 -42 13 -47 11 -108 10 -150 -2z"/>
</g>
</svg>
